<?xml version="1.0" encoding="UTF-8"?><svg xmlns="http://www.w3.org/2000/svg" xmlns:xlink="http://www.w3.org/1999/xlink" viewBox="0 0 1920 1080"><defs><style>.cls-1{isolation:isolate;}.cls-2{fill:url(#linear-gradient);mix-blend-mode:overlay;}.cls-3{fill:#cc9168;}.cls-4{fill:#033026;stroke:#cc9168;stroke-miterlimit:10;stroke-width:7.12px;}</style><linearGradient id="linear-gradient" x1="611.93" y1="540" x2="1308.07" y2="540" gradientTransform="matrix(1, 0, 0, 1, 0, 0)" gradientUnits="userSpaceOnUse"><stop offset="0" stop-color="#000" stop-opacity=".5"/><stop offset=".47" stop-color="#fff" stop-opacity=".4"/><stop offset="1" stop-color="#000" stop-opacity=".5"/></linearGradient></defs><g class="cls-1"><g id="Layer_1"><g><path class="cls-4" d="M1254.07,468.28v-47.85h-48.63v-29.33h-95.17c-38.09-38.07-90.7-61.61-148.81-61.61s-110.72,23.55-148.81,61.61h-95.78v29.33h-50.94v47.85c-29.82,0-54,31.79-54,71.01s24.17,71.01,54,71.01v56.34h50.94v24.85h98.5c37.86,36.52,89.33,59.02,146.09,59.02s108.23-22.5,146.09-59.02h97.89v-24.85h48.63v-56.34c29.82,0,54-31.79,54-71.01s-24.18-71.01-54-71.01Z"/><path class="cls-2" d="M1254.07,468.28v-47.85h-48.63v-29.33h-95.17c-38.09-38.07-90.7-61.61-148.81-61.61s-110.72,23.55-148.81,61.61h-95.78v29.33h-50.94v47.85c-29.82,0-54,31.79-54,71.01s24.17,71.01,54,71.01v56.34h50.94v24.85h98.5c37.86,36.52,89.33,59.02,146.09,59.02s108.23-22.5,146.09-59.02h97.89v-24.85h48.63v-56.34c29.82,0,54-31.79,54-71.01s-24.18-71.01-54-71.01Z"/><g><path class="cls-3" d="M1216.61,540.27h-.04s0-.11,.01-.27c-.01-.16-.01-.27-.01-.27h.04c.17-1.86,1.15-8.16,6.84-10.76,0,0-.95-4.9,2.32-7.72,3.75-3.23,10.35-.93,13.92-5.03,3.72-4.27,2.87-8.01,2.87-8.01,0,0,7.39-2.91,8.56,9.41,0,0,7.51-2.29,10.25,8.22,3.49-.06,6.78,2.89,7.07,9.09,0,0,3.67,4.71,6.74,4.9,.09,0,.1,.01,.09,.02,0,0,0,0-.02,0-.05,.01-.15,.03-.32,.05-3.01,.43-6.48,5.18-6.48,5.18-.29,6.19-3.58,9.15-7.07,9.09-2.73,10.52-10.25,8.22-10.25,8.22-1.18,12.32-8.56,9.41-8.56,9.41,0,0,.85-3.74-2.87-8.01-3.57-4.09-10.16-1.79-13.92-5.03-3.28-2.82-2.32-7.72-2.32-7.72-5.69-2.6-6.67-8.9-6.84-10.76Zm24.47,10.58c1.77,1.13,3.12,3.55,3.17,6.51,4.14,.97,6.79-1.22,6.96-7.07,5.93,.03,5.66-8.7,9.81-10.29-4.15-1.59-3.88-10.32-9.81-10.29-.17-5.86-2.82-8.05-6.96-7.07-.05,2.96-1.4,5.39-3.17,6.51-5.27-.15-10.86,2.71-11.07,10.54h0s.02,.02,.02,.04h-.03c0,.09,0,.18,0,.27,0,.09,0,.18,0,.27h.03s-.02,.02-.02,.04h0c.21,7.83,5.8,10.69,11.07,10.54Z"/><path class="cls-3" d="M1238.99,520.18c3.13,3.3,3.62,8.78,3.62,8.78,9-1.04,9.55,9.31,15.27,10.94-.09,.03-.17,.07-.26,.1,.09,.03,.16,.07,.26,.1-5.72,1.63-6.26,11.98-15.27,10.94,0,0-.49,5.49-3.62,8.78-2.9,4.3-7.73,6.84-12.98,6.26l-.97-26.08,.97-26.08c5.25-.58,10.08,1.96,12.98,6.26Z"/></g><g><path class="cls-3" d="M700.59,540.27h.04s0-.11-.01-.27c.01-.16,.01-.27,.01-.27h-.04c-.17-1.86-1.15-8.16-6.84-10.76,0,0,.95-4.9-2.32-7.72-3.75-3.23-10.35-.93-13.92-5.03-3.72-4.27-2.87-8.01-2.87-8.01,0,0-7.39-2.91-8.56,9.41,0,0-7.51-2.29-10.25,8.22-3.49-.06-6.78,2.89-7.07,9.09,0,0-3.67,4.71-6.74,4.9-.09,0-.1,.01-.09,.02,0,0,0,0,.02,0,.05,.01,.15,.03,.32,.05,3.01,.43,6.48,5.18,6.48,5.18,.29,6.19,3.58,9.15,7.07,9.09,2.73,10.52,10.25,8.22,10.25,8.22,1.18,12.32,8.56,9.41,8.56,9.41,0,0-.85-3.74,2.87-8.01,3.57-4.09,10.16-1.79,13.92-5.03,3.28-2.82,2.32-7.72,2.32-7.72,5.69-2.6,6.67-8.9,6.84-10.76Zm-24.47,10.58c-1.77,1.13-3.12,3.55-3.17,6.51-4.14,.97-6.79-1.22-6.96-7.07-5.93,.03-5.66-8.7-9.81-10.29,4.15-1.59,3.88-10.32,9.81-10.29,.17-5.86,2.82-8.05,6.96-7.07,.05,2.96,1.4,5.39,3.17,6.51,5.27-.15,10.86,2.71,11.07,10.54h0s-.02,.02-.02,.04h.03c0,.09,0,.18,0,.27,0,.09,0,.18,0,.27h-.03s.02,.02,.02,.04h0c-.21,7.83-5.8,10.69-11.07,10.54Z"/><path class="cls-3" d="M678.21,520.18c-3.13,3.3-3.62,8.78-3.62,8.78-9-1.04-9.55,9.31-15.27,10.94,.09,.03,.17,.07,.26,.1-.09,.03-.16,.07-.26,.1,5.72,1.63,6.26,11.98,15.27,10.94,0,0,.49,5.49,3.62,8.78,2.9,4.3,7.73,6.84,12.98,6.26l.97-26.08-.97-26.08c-5.25-.58-10.08,1.96-12.98,6.26Z"/></g><g><g><path class="cls-3" d="M904.85,556.05h-.05c-4.02-.46-6.97-2.13-8.83-4.97-4.02-6.16-1.16-15.51-1.03-15.91,.59-1.49,1.54-3.4,3.11-3.4,.88,0,1.99,.5,2.22,2.91,.29,2.96,3.19,4.87,7.38,4.87,4.54,0,12.59-1.53,16.27-8.56l.32-.71c4.9-10.76,10.17-26.44,20.73-31.52,3.31-1.59,6.92-2.44,10.42-2.44,5.06,0,9.48,1.81,12.44,5.1,3.37,3.74,4.27,9.23,3.36,17.08-1.63,14.04-12.71,29.83-28.46,32.07-.29,.04-.57,.05-.84,.05-3.32,0-6.53-1.97-8.18-5.02-1.34-2.48-2.29-9.57,2.62-16.13l2-2.29,.65,2.8c.93,3.47,3.81,5.19,7.95,5.19h.12c8.52,.63,18.94-12.51,18.98-13.84-1.71-8.92-13.06-8.93-13.49-8.93-4.25,0-9.02,1.43-12.76,3.83-6.78,4.35-10.1,12.07-13.32,19.54-4.49,10.42-8.73,20.26-21.52,20.26h-.09Z"/><path class="cls-3" d="M1043.45,532.07s2.62,10.47,19.7,6c17.09-4.46,43.87-24.01,43.87-24.01,0,0,16.63-10.93,25.09-3.85,8.47,7.08,0,30.94,0,30.94,0,0-59.09,37.54-82.09,37.45-21.69,1.76-25.24-7.23-24.6-13.92-.37-4.4,1.07-7.65,3.59-10.56-.07,8.2,8.31,10.69,13.96,10.86,11.93,.36,20.95-2.12,39.27-10.74,18.32-8.62,48.8-27.25,48.8-27.25,0,0-.15-8-8.31-5.54-8.16,2.46-25.09,12.62-29.56,16.01-4.46,3.39-32.33,16.93-41.41,15.86-9.08-1.08-13.08-8.31-13.39-18.32l5.08-2.92Z"/><path class="cls-3" d="M811.34,532.3s2.62,10.47,19.7,6c17.09-4.46,43.87-24.01,43.87-24.01,0,0,16.63-10.93,25.09-3.85,8.47,7.08,0,30.94,0,30.94,0,0-59.09,37.54-82.09,37.45-17.4-.27-24.22-6.59-28.62-14.51-19.52-35.05,20.38-82.63,50.02-92.55-23.23,10.33-53.46,41.18-50.02,73.79,4.62,30.52,42.52,17.52,60.84,8.9,18.32-8.62,48.8-27.25,48.8-27.25,0,0-.15-8-8.31-5.54-8.16,2.46-25.09,12.62-29.56,16.01-4.46,3.39-32.33,16.93-41.41,15.86-9.08-1.08-13.08-8.31-13.39-18.32l5.08-2.92Z"/><path class="cls-3" d="M1129.78,513.1s6.78-17.1,2.91-26.18c-3.46-8.12-12.12-7.27-33.21,7.51-18.89,13.25-41.8,29.23-57.19,35.55-3.49,1.43-4.24,5.26-3.8,6.89l.88,5.22s26.42-10.09,39.02-18.57c12.6-8.48,37.5-25.72,42.66-27.15,4.48-1.24,10.42-1.7,8.73,16.73Z"/><path class="cls-3" d="M1115.34,485.76s3.07-5.5,1.16-10.47c-1.26-3.29-4.85-2.91-13.28,3-6.43,4.51-36.31,25.28-50.65,31.73-3.4,1.53-5.4,5.08-4.85,8.77h0c8.14,.67,62.06-39.14,64.12-39.72,1.79-.5,4.17-.68,3.49,6.69Z"/><path class="cls-3" d="M897.32,511.94s6.54-16.06,2.91-26.18c-2.98-8.3-12.12-7.27-33.21,7.51-18.89,13.25-41.97,29.69-57.19,35.55-3.52,1.36-4.24,5.26-3.8,6.89l.88,5.22s26.42-10.09,39.02-18.57c12.6-8.48,37.45-25.93,42.66-27.15,5.35-1.25,10.42-1.7,8.73,16.73Z"/><path class="cls-3" d="M1029.18,540.27s-26.2,22.65-39.95,21.93c-10.19-.54-8.92-8.07-8.92-8.07,0,0-9.09,13,1.91,22.1,11.55,8.26,46.96-19.12,46.96-19.12v-16.83Z"/><path class="cls-3" d="M980.44,540.12s-28,23.41-39.95,23.01c-10.2-.34-8.92-8.07-8.92-8.07,0,0-9.09,13,1.91,22.1,11.97,7.74,46.96-19.12,46.96-19.12v-17.91Z"/><circle class="cls-3" cx="1002.9" cy="538.44" r="7.32"/><g><path class="cls-3" d="M821.55,486.1s4.3,2.87,11.83,1.03c7.03-1.71,7.08-4.56,12.39-6.11,5.3-1.55,10.02-2.97,10.02-2.97,0,0-11.07,2.98-13.55,1.34-2.49-1.64-10.52-2.38-16.41,2.16-3.91,3.15-4.09,4.37-4.27,4.54Z"/><path class="cls-3" d="M808.79,499.44s4.55,2.69,12.14,.4c7.08-2.14,6.98-5.05,12.31-6.92,5.33-1.88,10.06-3.59,10.06-3.59,0,0-11.13,3.66-13.77,2.12-2.63-1.54-10.87-1.85-16.63,3.12-3.82,3.43-3.93,4.69-4.11,4.87Z"/><path class="cls-3" d="M798.25,513.65s4.4,2.02,11.09-.78c6.25-2.61,5.88-5.25,10.56-7.46,4.68-2.21,8.83-4.21,8.83-4.21,0,0-9.8,4.38-12.34,3.22-2.54-1.15-10.07-.66-14.86,4.4-3.15,3.48-3.14,4.64-3.29,4.82Z"/><path class="cls-3" d="M817.39,478.75s-.62-5.17,4.46-11.09c4.91-5.72,7.31-4.28,11.11-8.33,3.8-4.05,7.22-7.64,7.22-7.64,0,0-7.71,8.57-7.37,11.55s-2.65,10.52-9.4,13.74c-4.6,2.08-5.78,1.68-6.02,1.77Z"/><path class="cls-3" d="M803.26,492.6s-2.03-4.47,1.01-11.56c2.94-6.86,5.57-6.38,7.95-11.35,2.38-4.97,4.54-9.39,4.54-9.39,0,0-4.73,10.4-3.58,12.98,1.15,2.58,.51,10.43-4.85,15.66-3.68,3.46-4.88,3.5-5.08,3.66Z"/><path class="cls-3" d="M791.33,508.88s-2.28-3.98-.2-10.52c2.02-6.32,4.46-5.99,6.15-10.58,1.69-4.59,3.23-8.68,3.23-8.68,0,0-3.31,9.6-2.01,11.9,1.3,2.3,1.47,9.44-2.9,14.37-3.02,3.26-4.11,3.35-4.27,3.5Z"/><path class="cls-3" d="M847.23,472.3c7.22-3.85,5.82-5.94,10.98-8.64,5.16-2.71,9.74-5.16,9.74-5.16,0,0-1.79,.89-4.12,1.87,2.26-1.13,4.1-1.91,4.1-1.91,0,0-4.84,1.89-10.26,4.05-5.41,2.16-6.08-.26-13.71,2.72-7.22,2.83-9.49,8.2-9.71,8.76,.57,.2,6.13,1.97,12.97-1.68Z"/></g></g><g><path class="cls-3" d="M824.16,624.45v.2l-.03,.08-.32,.19c-.08,.05-.12,.09-.14,.11-.01,.03-.03,.16-.05,.39-.02,.23-.03,.52-.03,.86,0,.38,.02,.8,.07,1.24l-.04,.07c-1.2,.46-2.44,.69-3.7,.69-.97,0-1.85-.18-2.64-.55-.78-.37-1.41-.91-1.87-1.64-.46-.72-.69-1.58-.69-2.58,0-1.52,.52-2.72,1.56-3.62,1.04-.89,2.39-1.34,4.06-1.34,1.23,0,2.33,.21,3.31,.62l.05,.07c-.08,.29-.17,.91-.28,1.85l-.05,.05h-.3l-.05-.05-.03-.7c-.01-.23-.03-.36-.04-.4-.02-.04-.06-.09-.14-.15-.08-.06-.28-.16-.61-.3s-.65-.24-.98-.3c-.33-.06-.68-.09-1.06-.09-.8,0-1.51,.17-2.13,.5-.62,.33-1.08,.82-1.4,1.46-.31,.64-.47,1.35-.47,2.13s.17,1.56,.51,2.25c.34,.69,.82,1.24,1.45,1.63,.63,.39,1.36,.59,2.2,.59,.36,0,.73-.04,1.11-.11s.69-.17,.94-.31c.04-.14,.06-.42,.06-.85v-.73c0-.35-.02-.56-.07-.65s-.15-.15-.33-.18c-.17-.03-.55-.06-1.12-.07l-.06-.06v-.29l.06-.06h.4c.69,.03,1.25,.05,1.68,.05,.25,0,.62-.01,1.1-.04l.07,.05Z"/><path class="cls-3" d="M855.17,628.09l-.06-.05v-.34l.06-.05c.32,0,.53-.02,.62-.05,.09-.03,.17-.09,.25-.17,.07-.09,.22-.37,.44-.84l.69-1.5,1.79-4.05c.34-.79,.67-1.59,1.01-2.38h.43l2.81,6.6,.37,.88c.11,.25,.24,.52,.38,.81,.14,.29,.24,.47,.3,.52,.05,.05,.12,.09,.2,.12,.08,.03,.26,.05,.54,.05l.05,.05v.34l-.05,.05c-.46-.04-.88-.06-1.26-.06-.73,.02-1.46,.04-2.18,.06l-.05-.05v-.34l.05-.05c.49,0,.8-.03,.92-.06,.12-.03,.18-.11,.18-.23,0-.1-.03-.22-.09-.38l-.81-2.01h-3.81l-.72,1.68c-.13,.3-.19,.52-.19,.66,0,.11,.06,.19,.18,.24,.12,.05,.42,.08,.89,.09l.06,.05v.34l-.05,.05c-.57-.04-1.06-.05-1.49-.05-.48,0-.97,.02-1.46,.05Zm3-3.69h3.33l-1.65-3.96-1.68,3.96Z"/><path class="cls-3" d="M896.08,628.08l-.06-.06v-.3l.06-.05c.27,0,.48-.02,.64-.05s.26-.07,.31-.13,.08-.16,.09-.3c.01-.14,.03-.44,.05-.92,.02-.48,.02-.82,.02-1.03v-5.31c0-.22-.04-.39-.12-.5-.08-.11-.19-.18-.33-.2-.14-.03-.38-.04-.72-.05l-.05-.05v-.31l.05-.06c.6,.02,1,.03,1.19,.03,.44,0,.81,0,1.09-.03l2.1,2.72,3.08,3.87c.37,.47,.75,.91,1.14,1.33v-5.09c0-.16,0-.49-.02-1.01-.02-.52-.03-.84-.06-.98-.02-.14-.06-.23-.11-.28-.05-.05-.16-.08-.31-.11s-.36-.04-.61-.04l-.05-.05v-.3l.05-.06c.35,.02,.86,.03,1.52,.03,.6,0,1.04,0,1.31-.03l.06,.06v.3l-.05,.05c-.29,0-.51,.02-.67,.05s-.26,.08-.3,.14-.07,.16-.08,.29c-.02,.13-.03,.43-.05,.91-.01,.48-.02,.82-.02,1.03v4.93c.01,.59,.02,1.19,.03,1.78-.22-.07-.6-.17-1.14-.28l-.47-.55-1.4-1.71-4.46-5.57v5.04c0,.2,0,.56,.02,1.08,.01,.52,.03,.83,.06,.94,.02,.11,.05,.19,.09,.23,.03,.04,.11,.08,.23,.12,.12,.03,.36,.05,.72,.06l.05,.05v.31l-.05,.05c-.23-.03-.6-.05-1.1-.05-.65,0-1.23,.02-1.72,.05Z"/><path class="cls-3" d="M937.33,618.79l.05-.05c.76,.04,1.28,.05,1.55,.05l3.08-.07c.88,0,1.6,.08,2.16,.25,.56,.16,1.06,.45,1.5,.85,.44,.41,.77,.88,.99,1.41,.23,.54,.34,1.11,.34,1.72s-.1,1.18-.31,1.76c-.21,.58-.5,1.1-.88,1.56-.38,.46-.81,.83-1.29,1.11-.48,.28-.97,.47-1.46,.56-.49,.09-.98,.14-1.49,.14-.34,0-.99-.01-1.93-.04-.31,0-.52-.01-.62-.01-.3,0-.67,.02-1.1,.05l-.05-.05v-.22l.05-.07c.26-.13,.41-.21,.44-.25s.07-.42,.09-1.15,.04-1.29,.04-1.68v-3.91c0-.32-.01-.59-.02-.79,0-.2-.02-.35-.05-.44-.02-.09-.05-.15-.08-.18-.03-.04-.07-.07-.14-.09-.06-.02-.17-.04-.32-.06l-.5-.04-.05-.05v-.33Zm2.43,8.58c.45,.09,.96,.13,1.54,.13,1.02,0,1.84-.17,2.45-.51,.61-.34,1.07-.85,1.37-1.52,.3-.67,.45-1.43,.45-2.27,0-1.24-.33-2.2-.99-2.89-.66-.68-1.7-1.03-3.13-1.03-.59,0-1.15,.04-1.7,.13-.03,.72-.05,1.53-.05,2.43v4c.01,.38,.03,.88,.05,1.52Z"/><path class="cls-3" d="M978.16,623.51c0-.66,.09-1.27,.28-1.84,.19-.57,.51-1.1,.96-1.58,.45-.48,1-.86,1.64-1.12,.64-.27,1.36-.4,2.17-.4,1.49,0,2.68,.41,3.57,1.22,.89,.81,1.33,1.92,1.33,3.33,0,.99-.22,1.88-.65,2.67-.43,.79-1.05,1.4-1.86,1.84-.81,.44-1.72,.66-2.72,.66-.71,0-1.37-.12-1.97-.36-.6-.24-1.11-.59-1.54-1.07-.42-.47-.73-1.02-.92-1.64-.19-.62-.29-1.19-.29-1.7Zm1.37-.43c0,.54,.09,1.11,.26,1.73,.17,.62,.43,1.14,.78,1.58,.34,.44,.74,.77,1.19,.98,.45,.22,.96,.32,1.54,.32,.68,0,1.28-.16,1.81-.47,.53-.31,.93-.79,1.21-1.45,.28-.66,.41-1.39,.41-2.21,0-.89-.16-1.69-.47-2.4-.31-.71-.76-1.23-1.35-1.56-.58-.32-1.23-.49-1.94-.49-1.06,0-1.9,.33-2.52,1-.61,.67-.92,1.65-.92,2.95Z"/><path class="cls-3" d="M1031.1,618.77l.06,.05v.32l-.05,.05c-.48,.01-.78,.04-.9,.07-.12,.04-.2,.09-.25,.17-.05,.08-.08,.24-.08,.48,0,.24-.02,.91-.04,2.01v3.03c0,.44,0,.93,.02,1.49,.01,.55,.04,.87,.08,.96s.12,.16,.23,.2c.11,.04,.42,.07,.93,.08l.05,.05v.32l-.06,.05c-.71-.04-1.34-.06-1.87-.06-.36,0-.97,.02-1.83,.06l-.06-.05v-.32l.05-.05c.48-.01,.78-.04,.9-.07,.12-.03,.2-.09,.25-.17,.05-.08,.08-.24,.09-.48,0-.24,.02-.91,.03-2v-4.82l-2.27,4.75c-.57,1.19-1.07,2.31-1.49,3.35h-.26c-.25-.57-.45-1.02-.6-1.35l-3.14-6.53v4.6c0,.43,0,.92,.02,1.48,.01,.56,.04,.88,.08,.97,.04,.09,.12,.15,.23,.2,.11,.04,.42,.07,.93,.08l.05,.05v.32l-.06,.06-.42-.02c-.43-.02-.81-.03-1.12-.03-.14,0-.66,.02-1.57,.05l-.05-.05v-.32l.05-.06c.48,0,.78-.03,.89-.07,.11-.04,.2-.09,.25-.18,.05-.08,.08-.24,.09-.47,0-.23,.02-.9,.03-2.02v-3.01c0-.4,0-.88-.02-1.46-.01-.57-.04-.9-.08-.99-.04-.09-.12-.16-.23-.2-.11-.04-.42-.07-.93-.08l-.05-.05v-.32l.06-.06c.3,.02,.71,.03,1.22,.03,.48,0,.9,0,1.26-.03,.37,.85,.72,1.62,1.06,2.31l2.49,5.11,2.25-4.69c.61-1.27,1.02-2.18,1.23-2.73,.42,.02,.83,.03,1.24,.03,.37,0,.8,0,1.3-.03Z"/><path class="cls-3" d="M1062.05,628.09l-.06-.05v-.34l.06-.05c.32,0,.53-.02,.62-.05,.09-.03,.17-.09,.25-.17,.07-.09,.22-.37,.44-.84l.69-1.5,1.79-4.05c.34-.79,.67-1.59,1.01-2.38h.43l2.81,6.6,.37,.88c.11,.25,.24,.52,.38,.81,.14,.29,.24,.47,.3,.52,.05,.05,.12,.09,.2,.12,.08,.03,.26,.05,.54,.05l.05,.05v.34l-.05,.05c-.46-.04-.88-.06-1.26-.06-.73,.02-1.46,.04-2.18,.06l-.05-.05v-.34l.05-.05c.49,0,.8-.03,.92-.06,.12-.03,.18-.11,.18-.23,0-.1-.03-.22-.09-.38l-.81-2.01h-3.81l-.72,1.68c-.13,.3-.19,.52-.19,.66,0,.11,.06,.19,.18,.24,.12,.05,.42,.08,.89,.09l.06,.05v.34l-.05,.05c-.57-.04-1.06-.05-1.49-.05-.48,0-.97,.02-1.46,.05Zm3-3.69h3.33l-1.65-3.96-1.68,3.96Z"/><path class="cls-3" d="M1105.43,623.28c1.1-.99,1.89-1.74,2.38-2.23,.49-.49,.89-.89,1.21-1.21,.32-.32,.51-.52,.57-.62v-.43l.07-.05c.33,.02,.7,.03,1.09,.03,.09,0,.43,0,1.04-.02l.07,.06v.31l-.05,.05c-.41,0-.69,.02-.84,.07-.15,.05-.37,.19-.65,.42-.29,.23-.62,.52-.99,.86l-2.66,2.43,3.96,3.66c.64,.59,.99,.91,1.07,.97,.08,.05,.24,.08,.48,.09l.05,.05v.28l-.05,.05c-.25-.02-.52-.03-.79-.03-.16,0-.52,0-1.06,.03-.4-.38-.75-.71-1.05-1-.3-.29-1.58-1.46-3.83-3.52v2.68c.01,.5,.02,.82,.05,.96,.02,.14,.05,.24,.09,.29s.12,.09,.24,.12,.41,.06,.87,.08l.05,.04v.33l-.05,.05s-.41-.01-1.16-.04c-.31,0-.55-.01-.73-.01-.14,0-.76,.02-1.88,.05l-.05-.05v-.33l.05-.04c.41-.02,.68-.04,.82-.07,.14-.03,.23-.06,.27-.1,.05-.04,.08-.13,.11-.27,.03-.14,.04-.44,.05-.91v-5.71c-.01-.5-.02-.82-.04-.97-.02-.14-.05-.24-.09-.29-.04-.05-.12-.09-.24-.12-.12-.03-.41-.06-.87-.07l-.05-.05v-.33l.05-.05,.82,.03c.54,.02,.89,.03,1.06,.03,.15,0,.78-.02,1.89-.05l.05,.05v.33l-.05,.05c-.3,0-.54,.02-.7,.04-.16,.02-.28,.05-.36,.1-.07,.05-.12,.16-.15,.34-.02,.18-.04,.42-.04,.74v2.89Z"/></g></g></g></g></g></svg>